<?xml version="1.0" encoding="UTF-8"?>
<svg id="_Слой_2" data-name="Слой_2" xmlns="http://www.w3.org/2000/svg" viewBox="0 0 171.75 171.75">
  <defs>
    <style>
      .cls-1 {
        fill: #fff;
      }

      .cls-1, .cls-2 {
        fill-rule: evenodd;
      }

      .cls-2 {
        stroke: #000;
        stroke-miterlimit: 22.93;
        stroke-width: .57px;
      }
    </style>
  </defs>
  <g id="Layer_1">
    <g>
      <path class="cls-2" d="M85.87,171.47c47.14,0,85.59-38.45,85.59-85.59S133.02.28,85.87.28.28,38.73.28,85.87s38.45,85.59,85.59,85.59Z"/>
      <path class="cls-1" d="M90.81,120.36c-37.76,0-59.3-25.89-60.2-68.97h18.92c.62,31.62,14.57,45.01,25.61,47.77v-47.77h17.81v27.27c10.91-1.17,22.37-13.6,26.23-27.27h17.81c-2.97,16.85-15.39,29.27-24.23,34.38,8.84,4.14,22.99,14.98,28.38,34.59h-19.61c-4.21-13.12-14.7-23.27-28.58-24.65v24.65h-2.14Z"/>
    </g>
  </g>
</svg>