<?xml version="1.0" encoding="UTF-8"?>
<svg id="_Слой_2" data-name="Слой_2" xmlns="http://www.w3.org/2000/svg" viewBox="0 0 171.75 171.75">
  <defs>
    <style>
      .cls-1 {
        fill: #fff;
      }

      .cls-1, .cls-2 {
        fill-rule: evenodd;
      }

      .cls-2 {
        stroke: #000;
        stroke-miterlimit: 22.93;
        stroke-width: .57px;
      }
    </style>
  </defs>
  <g id="Layer_1">
    <g>
      <path class="cls-2" d="M85.87,171.47c47.14,0,85.59-38.45,85.59-85.59S133.02.28,85.87.28.28,38.73.28,85.87s38.45,85.59,85.59,85.59Z"/>
      <path class="cls-1" d="M64.22,119.07l1.46.87c6.15,3.65,13.2,5.58,20.38,5.58h.02c22.07,0,40.04-17.97,40.05-40.05,0-10.7-4.16-20.76-11.72-28.33-7.56-7.57-17.62-11.74-28.31-11.74-22.09,0-40.06,17.96-40.06,40.04,0,7.57,2.11,14.94,6.12,21.31l.95,1.52-4.05,14.78,15.16-3.98h0ZM37.49,134.49l6.84-24.97c-4.22-7.31-6.44-15.6-6.43-24.09.01-26.57,21.62-48.18,48.18-48.18,12.89,0,24.99,5.02,34.08,14.13,9.1,9.11,14.1,21.21,14.1,34.09-.01,26.57-21.63,48.18-48.18,48.18h-.02c-8.06,0-15.99-2.03-23.02-5.87l-25.54,6.7h0ZM110.35,96.93c.3.5.3,2.91-.7,5.73-1,2.81-5.81,5.38-8.13,5.72-2.07.31-4.7.44-7.58-.48-1.75-.55-3.99-1.3-6.86-2.54-12.08-5.22-19.96-17.38-20.57-18.18-.6-.8-4.92-6.53-4.92-12.45s3.11-8.84,4.21-10.04c1.1-1.21,2.41-1.51,3.21-1.51s1.61,0,2.31.04c.74.04,1.73-.28,2.71,2.07,1,2.41,3.41,8.34,3.71,8.94.3.6.5,1.31.1,2.11-.4.8-.6,1.31-1.2,2.01-.6.7-1.26,1.57-1.81,2.11-.6.6-1.23,1.25-.53,2.46.7,1.21,3.12,5.15,6.7,8.34,4.6,4.1,8.48,5.37,9.68,5.98,1.2.6,1.91.5,2.61-.3.7-.8,3.01-3.52,3.81-4.72.8-1.2,1.61-1,2.71-.6,1.1.4,7.02,3.31,8.23,3.92,1.2.6,2.01.91,2.31,1.41Z"/>
    </g>
  </g>
</svg>