<svg width="284" height="431" viewBox="0 0 284 431" fill="none" xmlns="http://www.w3.org/2000/svg">
<path d="M160.112 215.5C195.381 208.705 221.925 179.164 221.925 143.745C221.925 103.301 187.317 70.5146 144.627 70.5146C106.367 70.5146 74.6832 96.8747 68.5013 131.454C62.3194 96.8747 30.6359 70.5146 -7.62419 70.5146C-50.3159 70.5146 -84.9238 103.301 -84.9238 143.745C-84.9238 179.164 -58.3797 208.705 -23.1112 215.5C-58.3806 222.296 -84.9238 251.838 -84.9238 287.256C-84.9238 327.7 -50.3159 360.486 -7.6251 360.486C30.6341 360.486 62.3176 334.127 68.5004 299.547C74.6823 334.127 106.366 360.486 144.626 360.486C187.317 360.486 221.924 327.699 221.924 287.256C221.924 251.838 195.381 222.296 160.112 215.5ZM68.5004 274.966C63.175 245.18 38.9501 221.49 7.86095 215.5C38.9501 209.51 63.175 185.821 68.5004 156.036C73.8257 185.821 98.0516 209.51 129.141 215.5C98.0516 221.49 73.8257 245.18 68.5004 274.966Z" fill="url(#paint0_linear_94_38)"/>
<defs>
<linearGradient id="paint0_linear_94_38" x1="221.925" y1="215.5" x2="-81.0999" y2="249.541" gradientUnits="userSpaceOnUse">
<stop stop-color="#D8BFFF"/>
<stop offset="1" stop-color="#F16A41"/>
</linearGradient>
</defs>
</svg>
