<svg width="1568" height="744" viewBox="0 0 1568 744" fill="none" xmlns="http://www.w3.org/2000/svg">
<path opacity="0.6" d="M214.831 1029C221.575 1008.2 227.955 984.419 235.527 905.025C241.839 838.832 246.532 719.501 247.751 640.347C249.516 525.667 233.182 461.149 217.542 410.006C192.399 327.785 130.882 280.261 87.1643 252.261C70.5495 241.62 47.6478 237.509 18.5101 235.08C-14.2382 232.351 -41.3605 249.191 -59.0382 261.57C-93.4967 285.701 -89.4707 343.922 -85.2853 391.824C-81.2563 437.935 -36.5276 482.824 -4.49578 514.619C24.8296 543.729 144.644 556.712 323.817 550.266C470.827 544.977 505.047 493.515 559.358 429.447C628.861 347.458 642.054 247.875 645.954 153.678C649.43 69.7186 615.091 30.0939 577.612 -16.1211C537.879 -65.1147 455.554 -63.4044 428.702 -54.328C415.412 -49.8359 408.831 -34.4978 402.998 -21.2914C390.309 7.43956 403.626 46.3368 417.717 76.5189C433.629 110.601 500.985 150.58 580.003 182.975C621.717 200.076 662.06 195.518 685.934 194.828C723.744 193.735 752.429 155.897 781.452 99.8008C818.905 27.4088 885.311 -1.06376 998.449 -26.467C1100.24 -49.3218 1218.6 -30.9751 1308.39 -21.148C1402.05 -10.8973 1486.16 57.2785 1518.25 86.6445C1555.23 120.492 1565.46 171.858 1571.33 210.231C1577.7 251.889 1552.32 296.198 1524.09 331.846C1494.33 369.435 1419.26 394.253 1361.46 405.318C1279.23 421.062 1203.38 408.007 1156.45 395.376C1027.95 360.784 975.413 294.885 931.16 230.589C884.592 162.928 887.362 -1.82372 898.264 -83.9534C906.747 -147.858 940.989 -170.819 1039.85 -240.194C1100.82 -282.978 1157.8 -295.878 1189.84 -304.24C1216.5 -311.2 1275.51 -297.06 1363.17 -269.869C1441.68 -238.156 1513.91 -190.061 1568.93 -140.553C1589.45 -121.734 1594.96 -115.716 1601 -107.995" stroke="url(#paint0_linear_91_2192)" stroke-width="50" stroke-linecap="round"/>
<defs>
<linearGradient id="paint0_linear_91_2192" x1="807.5" y1="361.5" x2="548.178" y2="326.671" gradientUnits="userSpaceOnUse">
<stop stop-color="#9FA0F1"/>
<stop offset="1" stop-color="#D8BFFF"/>
</linearGradient>
</defs>
</svg>
