<svg width="833" height="583" viewBox="0 0 833 583" fill="none" xmlns="http://www.w3.org/2000/svg">
<path d="M169.868 -47C173.094 -37.0441 176.146 -25.6612 179.768 12.341C182.788 44.024 185.033 101.142 185.616 139.03C186.461 193.921 178.647 224.803 171.165 249.283C159.136 288.638 129.707 311.385 108.793 324.787C100.845 329.881 89.8891 331.848 75.9499 333.011C60.2835 334.318 47.3084 326.257 38.8516 320.331C22.367 308.781 24.293 280.914 26.2953 257.985C28.2227 235.914 49.6204 214.428 64.9441 199.209C78.9731 185.276 136.291 179.061 222.006 182.147C292.334 184.678 308.704 209.311 334.686 239.977C367.935 279.221 374.247 326.887 376.113 371.974C377.775 412.162 361.348 431.128 343.418 453.249C324.411 476.7 285.027 475.881 272.181 471.537C265.824 469.387 262.675 462.045 259.885 455.724C253.815 441.972 260.185 423.353 266.926 408.907C274.538 392.593 306.761 373.457 344.562 357.951C364.518 349.766 383.817 351.947 395.239 352.278C413.327 352.801 427.049 370.912 440.933 397.763C458.85 432.413 490.619 446.042 544.742 458.201C593.436 469.141 650.06 460.359 693.015 455.655C737.822 450.749 778.057 418.116 793.408 404.06C811.101 387.859 815.992 363.272 818.801 344.905C821.849 324.965 809.707 303.757 796.204 286.694C781.967 268.702 746.054 256.823 718.405 251.527C679.063 243.99 642.778 250.24 620.331 256.285C558.853 272.843 533.722 304.385 512.552 335.161C490.275 367.547 491.6 446.405 496.815 485.717C500.873 516.305 517.254 527.295 564.548 560.502C593.714 580.981 620.976 587.155 636.303 591.158C649.058 594.489 677.286 587.721 719.219 574.706C756.781 559.526 791.336 536.506 817.656 512.808C827.473 503.801 830.106 500.92 832.997 497.225" stroke="url(#paint0_linear_91_2068)" stroke-width="50" stroke-linecap="round"/>
<defs>
<linearGradient id="paint0_linear_91_2068" x1="832.997" y1="272.5" x2="39.2977" y2="379.04" gradientUnits="userSpaceOnUse">
<stop stop-color="#F16A41"/>
<stop offset="1" stop-color="#D8BFFF"/>
</linearGradient>
</defs>
</svg>
