<svg xmlns="http://www.w3.org/2000/svg" width="35.091" height="29" viewBox="0 0 35.091 29">
  <path id="Контур_5" data-name="Контур 5" d="M35.481,11.717C30.852,13.635,11,21.857,5.518,24.1c-3.678,1.435-1.525,2.781-1.525,2.781s3.14,1.076,5.831,1.884,4.127-.09,4.127-.09L26.6,20.151c4.486-3.05,3.409-.538,2.332.538-2.332,2.333-6.19,6.011-9.42,8.971-1.435,1.256-.718,2.332-.09,2.871,2.332,1.974,8.7,6.011,9.061,6.28,1.9,1.342,5.623,3.273,6.19-.807l2.243-14.085c.718-4.755,1.435-9.151,1.525-10.407C38.711,10.462,35.481,11.717,35.481,11.717Z" transform="translate(-3.366 -11.461)" fill="#fff"/>
</svg>
