<svg xmlns="http://www.w3.org/2000/svg" width="50.689" height="29" viewBox="0 0 50.689 29">
  <path id="Контур_1" data-name="Контур 1" d="M42.217,148.38h3.029a2.548,2.548,0,0,0,1.381-.606,2.213,2.213,0,0,0,.415-1.335s-.06-4.076,1.829-4.676c1.86-.591,4.248,3.94,6.78,5.684a4.789,4.789,0,0,0,3.368,1.029l6.771-.1s3.542-.219,1.863-3.011c-.136-.228-.979-2.065-5.034-5.839-4.246-3.952-3.676-3.311,1.438-10.144,3.115-4.161,4.36-6.7,3.97-7.79-.371-1.036-2.661-.762-2.661-.762l-7.617.045a1.733,1.733,0,0,0-.985.175,2.145,2.145,0,0,0-.672.82,44.325,44.325,0,0,1-2.816,5.96c-3.393,5.778-4.752,6.083-5.307,5.724C46.677,132.722,47,130.2,47,128.4c0-5.6.846-7.936-1.651-8.539a13.026,13.026,0,0,0-3.558-.356c-2.719-.029-5.022.009-6.324.648-.868.426-1.537,1.376-1.128,1.43a3.413,3.413,0,0,1,2.25,1.134c.783,1.064.754,3.46.754,3.46s.45,6.591-1.049,7.412c-1.03.562-2.439-.585-5.465-5.83a48.929,48.929,0,0,1-2.721-5.655,2.257,2.257,0,0,0-.627-.848,3.148,3.148,0,0,0-1.173-.473l-7.242.044s-1.087.032-1.486.505c-.355.423-.028,1.293-.028,1.293s5.671,13.3,12.091,20.007c5.89,6.147,12.575,5.744,12.575,5.744Zm0,0" transform="translate(-17.415 -119.503)" fill="#fff"/>
</svg>
