<svg width="66" height="65" viewBox="0 0 66 65" fill="none" xmlns="http://www.w3.org/2000/svg">
<path fill-rule="evenodd" clip-rule="evenodd" d="M55.5308 9.44675C49.4209 3.35958 41.2955 0.00369591 32.6392 0C14.7958 0 0.278396 14.4473 0.274684 32.2062C0.267261 37.8572 1.75575 43.4122 4.59168 48.3093L0 65L17.1566 60.5206C21.9042 63.0929 27.2197 64.4419 32.6244 64.4419H32.6392C50.4751 64.4419 64.9926 49.9909 65 32.232C65.0037 23.628 61.6407 15.5376 55.5308 9.44675Z" fill="#DBB5E9"/>
<path fill-rule="evenodd" clip-rule="evenodd" d="M25.829 18.4996C25.1685 17.5488 24.12 16.9403 22.9668 16.8384C21.8137 16.7365 20.6747 17.1517 19.8577 17.972L18.5643 19.2658C13.2572 24.5994 17.7667 33.5614 24.8439 40.6459L24.8374 40.6361C31.9145 47.7174 40.8817 52.2308 46.2147 46.9198L47.5259 45.6086C48.3395 44.7949 48.7511 43.6626 48.65 42.5163C48.5488 41.3701 47.9453 40.3274 47.0018 39.6688L43.8255 37.4515C42.1499 36.2819 39.9155 36.3102 38.27 37.5218L35.9842 39.205C35.6607 39.448 35.2197 39.462 34.8815 39.24C33.1896 38.0862 31.6119 36.7732 30.17 35.319L30.1635 35.3125C28.7085 33.8709 27.3955 32.2927 26.2426 30.5997C26.0208 30.2615 26.0349 29.8204 26.2778 29.4971L27.9606 27.2121C29.1725 25.5665 29.2009 23.3314 28.0312 21.6556L25.8141 18.4788" fill="white"/>
</svg>
